<?xml version="1.0" encoding="utf-8" ?>
<svg xmlns="http://www.w3.org/2000/svg" xmlns:xlink="http://www.w3.org/1999/xlink" width="1024" height="1024">
	<path fill="#085AA5" transform="scale(2 2)" d="M280.19 366.474C285.354 366.506 291.02 366.911 295.976 365.288C295.979 383.851 296.346 402.485 295.976 421.04C299.118 423.966 307.596 431.122 309.607 434.42C312.979 439.951 309.182 447.131 302.687 447.113C296.753 447.097 292.199 439.742 288.018 436.131L287.667 436.427C283.31 440.148 278.701 447.677 272.384 447.252C265.76 446.807 262.765 439.215 266.366 433.872C269.447 429.299 275.528 424.289 280.19 421.04C280.266 416.455 280.139 411.87 280.19 407.285C280.626 403.268 280.208 398.591 280.205 394.489L280.19 366.474Z"/>
	<path fill="#085AA5" transform="scale(2 2)" d="M216.106 366.474C221.429 366.084 226.9 366.507 232.246 366.474C232.238 367.421 232.183 368.393 232.246 369.337C232.448 375.02 232.251 380.782 232.25 386.472L232.246 421.04C236.706 425.034 247.377 433.025 246.813 439.735C246.435 444.234 242.596 447.786 238.011 447.172C233.999 446.635 226.957 439.347 224.587 436.131C221.66 438.782 217.617 443.576 214.795 445.619C209.469 449.476 201.084 445.931 201.247 438.95C201.383 433.091 212.054 425.026 216.106 421.04C216.348 402.864 215.683 384.641 216.106 366.474Z"/>
	<path fill="#279CE0" transform="scale(2 2)" d="M351.755 90.7401L351.751 74.6571C351.754 70.8575 350.973 67.0262 353.588 63.8857C356.575 60.2977 361.812 60.6355 365.107 63.6495C369.182 67.3781 367.524 82.7448 367.521 87.9953C367.509 107.211 369.231 106.572 348.281 106.492C343.046 106.486 337.758 106.335 332.529 106.492C324.655 106.548 313.748 109.504 313.309 98.7115C313.062 92.6303 313.253 86.4671 313.254 80.3782C313.255 73.8466 310.861 61.4619 320.87 61.3159C329.955 61.1835 329.028 70.4427 329.02 76.6248L328.999 90.7401L351.755 90.7401Z"/>
	<path fill="#279CE0" transform="scale(2 2)" d="M163.761 106.492C142.345 106.414 144.157 108.099 144.096 87.8061C144.081 82.8166 142.247 66.1401 146.262 62.7727C149.296 60.2274 154.947 60.6096 157.422 63.8008C159.624 66.6407 158.78 72.1049 158.776 75.4276L158.751 90.7401C167.18 90.7308 175.624 90.6165 184.052 90.7401C184.052 86.093 184.101 81.441 184.052 76.7945C179.878 76.9878 173.434 78.1124 170.168 74.9669C165.504 70.4752 168.212 63.3748 174.214 61.855C180.229 60.3318 197.405 59.0221 199.151 67.9341C200.095 72.7471 199.892 93.2381 199.397 98.718C198.382 109.948 187.457 106.086 179.34 106.492L179.354 135.327C179.356 139.952 179.63 144.736 179.34 149.338C178.902 145.268 179.322 140.324 179.325 136.137L179.34 106.492L163.761 106.492Z"/>
	<path fill="#085AA5" transform="scale(2 2)" d="M115.407 327.35C125.406 318.759 134.227 308.278 144.042 299.378C149.614 294.326 156.035 295.46 163.131 295.473L187.787 295.489C191.562 295.499 195.469 295.889 199.22 295.528L199.624 295.486L199.624 311.467L170.517 311.454C167.264 311.449 161.764 310.975 158.751 311.467C157.141 311.646 155.605 311.568 153.992 311.467L140.961 324.245C136.853 328.21 132.087 332.333 128.933 337.118L128.949 354.775C128.952 361.435 130.829 374.361 120.939 374.569C111.529 374.767 112.758 364.817 112.759 358.422L112.78 342.922L89.6934 342.922L89.7027 359.32C89.7056 362.318 89.986 365.633 89.4381 368.575C88.2105 375.167 80.3989 376.565 75.9699 372.28C71.7729 368.219 73.2907 350.807 73.2913 344.923C73.2932 325.329 75.5734 327.34 93.3789 327.336L115.407 327.35Z"/>
	<path fill="#085AA5" transform="scale(2 2)" d="M312.47 295.486L346.082 295.476C351.76 295.472 357.549 295.232 363.218 295.486C366.123 297.336 368.651 300.249 371.116 302.663L382.361 313.723C386.979 318.287 391.92 322.509 396.264 327.35L420.954 327.33C426.675 327.325 436.4 325.436 438.199 333.01C439.182 337.147 438.74 360.761 438.528 365.928C438.215 373.551 429.703 377.769 424.359 371.797C420.772 367.787 422.452 349.067 422.245 342.922C415.999 342.639 406.051 342.49 399.879 342.922L399.879 358.747C406.426 358.65 414.345 358.161 414.372 366.881C414.404 376.896 397.776 374.807 391.323 374.336C381.516 373.619 383.225 363.988 383.23 356.983L383.248 337.118C376.043 329.179 363.309 319.294 357.568 311.467C343.336 311.288 329.081 311.468 314.847 311.467C310.047 311.044 312.447 300.523 312.47 295.486Z"/>
	<path fill="#085AA5" transform="scale(2 2)" d="M103.143 279.52C81.64 315.719 37.0017 284.513 56.1756 256.079C68.8837 237.234 99.5229 244.062 103.143 263.749L199.624 263.749C199.633 266.373 200.121 277.813 199.558 279.345L199.084 279.52C195.553 279.363 191.951 279.512 188.412 279.513L103.143 279.52ZM74.9857 260.324C61.932 264.643 66.5389 282.275 80.2516 280.188C91.589 277.291 91.7569 259.403 74.9857 260.324Z"/>
	<path fill="#085AA5" transform="scale(2 2)" d="M408.927 263.749C420.759 226.28 470.276 246.517 459.671 277.829C452.026 300.4 419.623 302.132 410.647 280.188L312.47 280.188C312.459 275.55 310.307 264.188 314.847 263.749L408.927 263.749ZM432.716 259.546C419.447 262.841 421.869 280.826 435.939 279.52C448.713 277.316 446.021 258.009 432.716 259.546Z"/>
	<path fill="#085AA5" transform="scale(2 2)" d="M163.761 106.492L179.34 106.492L179.325 136.137C179.322 140.324 178.902 145.268 179.34 149.338L179.34 191.369C190.933 201.774 209.576 224.215 221.288 231.749C214.165 233.676 207.457 235.019 203.329 242.105C202.167 244.098 201.477 246.799 200.149 248.607C193.229 248.478 152.253 249.78 148.805 247.717C143.449 244.512 120.151 220.336 114.612 214.547C107.345 214.404 100.051 214.551 92.7815 214.563C71.5211 214.597 75.0451 211.061 74.9977 193.591L74.9656 180.251C74.96 176.91 74.16 171.441 76.5848 168.71C79.8053 165.083 85.0669 165.276 88.4599 168.511C91.8744 171.766 90.7695 178.508 90.7592 182.715L90.7403 199.308C96.4599 198.927 107.02 198.917 112.78 199.308C113.05 197.707 112.997 183.77 112.78 182.453C108.909 182.463 103.629 183.174 100.43 180.67C93.9029 175.559 97.7344 166.847 106.905 166.679C126.003 166.328 128.967 163.593 128.952 183.855L128.933 206.109C137.636 214.986 146.04 224.056 155.087 232.622C169.69 232.811 184.482 232.902 199.084 232.622L167.956 202.145C162.817 197.014 163.743 194.134 163.748 187.321L163.761 106.492Z"/>
	<path fill="#085AA5" transform="scale(2 2)" d="M332.529 106.492C337.758 106.335 343.046 106.486 348.281 106.492L348.281 197.393C346.224 199.966 343.71 202.213 341.419 204.583L324.861 221.498C321.64 224.736 317.967 227.915 315.459 231.749C329.488 231.582 343.537 231.753 357.568 231.749C365.588 223.106 374.572 213.019 383.248 205.098C382.125 197.611 384.133 186.947 383.209 178.411C381.86 165.943 385.751 166.506 396.754 166.733C401.977 166.84 408.552 165.056 412.852 168.981C416.052 171.902 415.069 177.855 412.095 180.578C408.868 183.533 402.696 182.396 398.664 182.453L398.664 199.308C406.287 199.306 413.917 199.226 421.538 199.308L421.554 180.894C421.547 178.116 421.12 174.951 421.592 172.229C423.027 163.959 436.057 164.443 437.285 172.65C437.719 175.551 437.55 178.608 437.552 181.536L437.557 194.553C437.559 200.977 439.585 208.899 433.773 213.396C431.462 215.184 401.97 215.078 396.264 214.547C388.76 222.538 381.234 230.537 373.608 238.409C370.133 241.995 366.909 247.563 361.51 247.733C344.96 248.254 328.311 247.51 311.746 247.751C305.308 239.767 306.723 234.444 292.209 231.749C301.528 222.911 325.295 200.334 332.529 190.232L332.529 106.492Z"/>
	<path fill="#279CE0" transform="scale(2 2)" d="M252.019 118.647C282.742 116.623 308.934 139.508 311.673 170.134C314.381 200.394 289.646 227.65 259.928 230.253C241.874 230.494 226.575 224.24 214.425 211.02C182.93 176.751 205.736 123.312 252.019 118.647ZM230.183 156.102C208.741 158.792 212.433 190.771 234.544 188.247C255.217 184.686 250.93 153.429 230.183 156.102ZM278.434 156.102C257.021 158.393 258.911 188.89 281.252 188.247C304.119 185.18 297.081 153.432 278.434 156.102Z"/>
	<path fill="#279CE0" transform="scale(2 2)" d="M221.288 231.749C227.45 232.151 233.864 231.746 240.062 231.754L282.134 231.754C284.396 231.76 290.49 232.388 292.209 231.749C306.723 234.444 305.308 239.767 311.746 247.751C312.255 252.604 310.461 263.784 314.847 263.749C310.307 264.188 312.459 275.55 312.47 280.188L312.47 295.486C312.447 300.523 310.047 311.044 314.847 311.467C310.717 311.651 312.525 315.571 312.493 318.762L312.486 334.352C312.507 348.313 311.69 359.461 295.976 365.288C291.02 366.911 285.354 366.506 280.19 366.474L280.205 394.489C280.208 398.591 280.626 403.268 280.19 407.285C279.821 402.848 280.177 398.09 280.182 393.627L280.19 366.474L248.672 366.472C243.311 366.468 237.794 366.143 232.457 366.532C232.148 367.342 232.262 368.473 232.246 369.337C232.183 368.393 232.238 367.421 232.246 366.474C226.9 366.507 221.429 366.084 216.106 366.474C215.578 364.296 212.263 364.045 210.493 362.996C198.705 356.009 199.611 342.99 199.615 331.215L199.624 311.467C195.259 311.907 190.547 311.479 186.143 311.473L158.751 311.467C161.764 310.975 167.264 311.449 170.517 311.454L199.624 311.467L199.624 295.486C199.786 293.119 199.976 281.275 199.615 279.723L199.084 279.52L199.558 279.345C200.121 277.813 199.633 266.373 199.624 263.749C199.987 258.715 199.837 253.647 200.149 248.607C201.477 246.799 202.167 244.098 203.329 242.105C207.457 235.019 214.165 233.676 221.288 231.749ZM241.035 281.259C234.698 282.807 231.685 286.033 231.06 292.392C230.57 297.38 230.712 325.642 231.748 329.307C234.397 338.673 246.861 336.545 254.257 336.513C260.102 336.488 265.97 336.62 271.812 336.498C277.552 335.345 280.593 331.712 281.142 326.104C281.573 321.693 281.606 292.075 280.766 288.783C278.244 278.894 264.327 281.238 256.742 281.248C251.551 281.255 246.211 280.975 241.035 281.259Z"/>
</svg>
